<svg width="64" height="64" viewBox="0 0 64 64" fill="none" xmlns="http://www.w3.org/2000/svg">
<rect width="64" height="64" rx="4" fill="#52FFA8"/>
<g clip-path="url(#clip0_1_5)">
<path d="M42.6667 16H21.3333C19.9194 16.0018 18.5639 16.5642 17.564 17.564C16.5642 18.5639 16.0018 19.9194 16 21.3333V42.6667C16.0018 44.0806 16.5642 45.4361 17.564 46.436C18.5639 47.4358 19.9194 47.9982 21.3333 48H42.6667C44.0806 47.9982 45.4361 47.4358 46.436 46.436C47.4358 45.4361 47.9982 44.0806 48 42.6667V21.3333C47.9982 19.9194 47.4358 18.5639 46.436 17.564C45.4361 16.5642 44.0806 16.0018 42.6667 16V16ZM26 40C25.4696 40 24.9609 39.7893 24.5858 39.4142C24.2107 39.0391 24 38.5304 24 38C24 37.4696 24.2107 36.9609 24.5858 36.5858C24.9609 36.2107 25.4696 36 26 36C26.5304 36 27.0391 36.2107 27.4142 36.5858C27.7893 36.9609 28 37.4696 28 38C28 38.5304 27.7893 39.0391 27.4142 39.4142C27.0391 39.7893 26.5304 40 26 40V40ZM26 28C25.4696 28 24.9609 27.7893 24.5858 27.4142C24.2107 27.0391 24 26.5304 24 26C24 25.4696 24.2107 24.9609 24.5858 24.5858C24.9609 24.2107 25.4696 24 26 24C26.5304 24 27.0391 24.2107 27.4142 24.5858C27.7893 24.9609 28 25.4696 28 26C28 26.5304 27.7893 27.0391 27.4142 27.4142C27.0391 27.7893 26.5304 28 26 28V28ZM32 34C31.4696 34 30.9609 33.7893 30.5858 33.4142C30.2107 33.0391 30 32.5304 30 32C30 31.4696 30.2107 30.9609 30.5858 30.5858C30.9609 30.2107 31.4696 30 32 30C32.5304 30 33.0391 30.2107 33.4142 30.5858C33.7893 30.9609 34 31.4696 34 32C34 32.5304 33.7893 33.0391 33.4142 33.4142C33.0391 33.7893 32.5304 34 32 34ZM38 40C37.4696 40 36.9609 39.7893 36.5858 39.4142C36.2107 39.0391 36 38.5304 36 38C36 37.4696 36.2107 36.9609 36.5858 36.5858C36.9609 36.2107 37.4696 36 38 36C38.5304 36 39.0391 36.2107 39.4142 36.5858C39.7893 36.9609 40 37.4696 40 38C40 38.5304 39.7893 39.0391 39.4142 39.4142C39.0391 39.7893 38.5304 40 38 40ZM38 28C37.4696 28 36.9609 27.7893 36.5858 27.4142C36.2107 27.0391 36 26.5304 36 26C36 25.4696 36.2107 24.9609 36.5858 24.5858C36.9609 24.2107 37.4696 24 38 24C38.5304 24 39.0391 24.2107 39.4142 24.5858C39.7893 24.9609 40 25.4696 40 26C40 26.5304 39.7893 27.0391 39.4142 27.4142C39.0391 27.7893 38.5304 28 38 28Z" fill="#202733"/>
</g>
<defs>
<clipPath id="clip0_1_5">
<rect width="32" height="32" fill="white" transform="translate(16 16)"/>
</clipPath>
</defs>
</svg>
