<svg width="64" height="64" viewBox="0 0 64 64" fill="none" xmlns="http://www.w3.org/2000/svg">
<rect width="64" height="64" rx="4" fill="#FFC9C9"/>
<path d="M30.184 21.88V28.696H41.176V35.032H30.184V42.424H42.616V49H21.976V15.304H42.616V21.88H30.184Z" fill="white"/>
<path d="M30.184 21.88V19.88H28.184V21.88H30.184ZM30.184 28.696H28.184V30.696H30.184V28.696ZM41.176 28.696H43.176V26.696H41.176V28.696ZM41.176 35.032V37.032H43.176V35.032H41.176ZM30.184 35.032V33.032H28.184V35.032H30.184ZM30.184 42.424H28.184V44.424H30.184V42.424ZM42.616 42.424H44.616V40.424H42.616V42.424ZM42.616 49V51H44.616V49H42.616ZM21.976 49H19.976V51H21.976V49ZM21.976 15.304V13.304H19.976V15.304H21.976ZM42.616 15.304H44.616V13.304H42.616V15.304ZM42.616 21.88V23.88H44.616V21.88H42.616ZM28.184 21.88V28.696H32.184V21.88H28.184ZM30.184 30.696H41.176V26.696H30.184V30.696ZM39.176 28.696V35.032H43.176V28.696H39.176ZM41.176 33.032H30.184V37.032H41.176V33.032ZM28.184 35.032V42.424H32.184V35.032H28.184ZM30.184 44.424H42.616V40.424H30.184V44.424ZM40.616 42.424V49H44.616V42.424H40.616ZM42.616 47H21.976V51H42.616V47ZM23.976 49V15.304H19.976V49H23.976ZM21.976 17.304H42.616V13.304H21.976V17.304ZM40.616 15.304V21.88H44.616V15.304H40.616ZM42.616 19.88H30.184V23.88H42.616V19.88Z" fill="#FF6B6B"/>
</svg>
