<svg width="64" height="64" viewBox="0 0 64 64" fill="none" xmlns="http://www.w3.org/2000/svg">
<rect width="64" height="64" rx="4" fill="#674BAF"/>
<path d="M37.328 19.872V45H32.288V34.308H21.524V45H16.484V19.872H21.524V30.204H32.288V19.872H37.328Z" fill="white"/>
<path d="M44.5207 45.252C43.6087 45.252 42.8527 44.976 42.2527 44.424C41.6767 43.848 41.3887 43.14 41.3887 42.3C41.3887 41.46 41.6767 40.764 42.2527 40.212C42.8527 39.636 43.6087 39.348 44.5207 39.348C45.4087 39.348 46.1407 39.636 46.7167 40.212C47.2927 40.764 47.5807 41.46 47.5807 42.3C47.5807 43.14 47.2927 43.848 46.7167 44.424C46.1407 44.976 45.4087 45.252 44.5207 45.252Z" fill="#E882E8"/>
</svg>
