<svg width="64" height="64" viewBox="0 0 64 64" fill="none" xmlns="http://www.w3.org/2000/svg">
<rect width="64" height="64" rx="4" fill="#39D9A9"/>
<path d="M37.04 37.12C37.04 37.12 40.8533 33.3333 42.1467 32C46.24 28 44.2 19.76 44.2 19.76C44.2 19.76 36 17.72 32 21.8133C28.88 24.8533 26.8533 26.96 26.8533 26.96C26.8533 26.96 21.7333 25.8933 18.6667 28.96L35 45.3333C38.0667 42.2267 37.04 37.12 37.04 37.12ZM35.04 25.12C35.2877 24.8721 35.5818 24.6754 35.9055 24.5412C36.2292 24.407 36.5762 24.3379 36.9267 24.3379C37.2771 24.3379 37.6241 24.407 37.9478 24.5412C38.2716 24.6754 38.5657 24.8721 38.8133 25.12C39.186 25.4931 39.4397 25.9682 39.5423 26.4854C39.645 27.0026 39.592 27.5386 39.3901 28.0257C39.1881 28.5128 38.8463 28.9291 38.4079 29.222C37.9694 29.5149 37.454 29.6712 36.9267 29.6712C36.3994 29.6712 35.8839 29.5149 35.4455 29.222C35.007 28.9291 34.6652 28.5128 34.4633 28.0257C34.2614 27.5386 34.2084 27.0026 34.311 26.4854C34.4137 25.9682 34.6674 25.4931 35.04 25.12ZM20 44C22.4681 43.9296 24.8309 42.9845 26.6667 41.3333L22.6667 37.3333C20 38.6667 20 44 20 44Z" fill="white"/>
</svg>
