<svg width="64" height="64" viewBox="0 0 64 64" fill="none" xmlns="http://www.w3.org/2000/svg">
<rect width="64" height="64" rx="4" fill="#F0DB4F"/>
<path d="M30.9333 16V20.2667H33.0667V16H30.9333Z" fill="#323330"/>
<path d="M23.1552 23.7781L19.9552 20.5781L18.4448 22.0885L21.6448 25.2885L23.1552 23.7781Z" fill="#323330"/>
<path d="M42.3552 25.2885L45.5552 22.0885L44.0448 20.5781L40.8448 23.7781L42.3552 25.2885Z" fill="#323330"/>
<path d="M32 22.4C29.9664 22.3997 28.0009 23.1331 26.4646 24.4656C24.9284 25.798 23.9245 27.6401 23.6373 29.6533L23.616 29.8027C23.4538 30.9242 23.5195 32.067 23.8091 33.1626C24.0986 34.2582 24.6062 35.2842 25.3013 36.1792C26.1184 37.2352 26.6667 38.2443 26.6667 39.2555V42.6667C26.6667 42.9496 26.779 43.2209 26.9791 43.4209C27.1791 43.6209 27.4504 43.7333 27.7333 43.7333H36.2667C36.5496 43.7333 36.8209 43.6209 37.0209 43.4209C37.2209 43.2209 37.3333 42.9496 37.3333 42.6667V39.2555C37.3333 38.2443 37.8816 37.2352 38.6987 36.1792C40.0427 34.4427 40.7211 32.1792 40.384 29.8005L40.3627 29.6512C40.075 27.6383 39.0709 25.7968 37.5347 24.4648C35.9985 23.1327 34.0333 22.3996 32 22.4V22.4Z" fill="#323330"/>
<path d="M16 33.0667H20.2667V30.9333H16V33.0667Z" fill="#323330"/>
<path d="M43.7333 33.0667H48V30.9333H43.7333V33.0667Z" fill="#323330"/>
<path d="M28.8 48H35.2V45.8667H28.8V48Z" fill="#323330"/>
</svg>
