<svg width="64" height="64" viewBox="0 0 64 64" fill="none" xmlns="http://www.w3.org/2000/svg">
<rect width="64" height="64" rx="4" fill="#1976D2"/>
<path d="M32 12C29.3736 12 26.7728 12.5173 24.3463 13.5224C21.9198 14.5275 19.715 16.0007 17.8579 17.8579C14.1071 21.6086 12 26.6957 12 32C12 40.84 17.74 48.34 25.68 51C26.68 51.16 27 50.54 27 50V46.62C21.46 47.82 20.28 43.94 20.28 43.94C19.36 41.62 18.06 41 18.06 41C16.24 39.76 18.2 39.8 18.2 39.8C20.2 39.94 21.26 41.86 21.26 41.86C23 44.9 25.94 44 27.08 43.52C27.26 42.22 27.78 41.34 28.34 40.84C23.9 40.34 19.24 38.62 19.24 31C19.24 28.78 20 27 21.3 25.58C21.1 25.08 20.4 23 21.5 20.3C21.5 20.3 23.18 19.76 27 22.34C28.58 21.9 30.3 21.68 32 21.68C33.7 21.68 35.42 21.9 37 22.34C40.82 19.76 42.5 20.3 42.5 20.3C43.6 23 42.9 25.08 42.7 25.58C44 27 44.76 28.78 44.76 31C44.76 38.64 40.08 40.32 35.62 40.82C36.34 41.44 37 42.66 37 44.52V50C37 50.54 37.32 51.18 38.34 51C46.28 48.32 52 40.84 52 32C52 29.3736 51.4827 26.7728 50.4776 24.3463C49.4725 21.9198 47.9993 19.715 46.1421 17.8579C44.285 16.0007 42.0802 14.5275 39.6537 13.5224C37.2272 12.5173 34.6264 12 32 12V12Z" fill="#FAFAFA"/>
</svg>
