<svg width="256" height="256" viewBox="0 0 256 256" fill="none" xmlns="http://www.w3.org/2000/svg">
<rect width="256" height="256" rx="4" fill="#212529"/>
<path d="M112.262 127.289C112.262 132.858 114.117 138.2 117.419 142.138C120.722 146.076 125.201 148.289 129.871 148.289C134.541 148.289 139.02 146.076 142.323 142.138C145.625 138.2 147.481 132.858 147.481 127.289C147.481 121.719 145.625 116.378 142.323 112.44C139.02 108.501 134.541 106.289 129.871 106.289C125.201 106.289 120.722 108.501 117.419 112.44C114.117 116.378 112.262 121.719 112.262 127.289V127.289ZM198.139 122.451C183.234 85.0076 160.703 66.1639 130.5 66.1639C100.281 66.1639 77.7662 85.0076 62.8611 122.47C62.2633 123.98 61.9532 125.629 61.9532 127.298C61.9532 128.968 62.2633 130.617 62.8611 132.126C77.7662 169.57 100.297 188.414 130.5 188.414C160.719 188.414 183.234 169.57 198.139 132.108C199.35 129.07 199.35 125.545 198.139 122.451V122.451ZM129.871 160.289C114.589 160.289 102.199 145.514 102.199 127.289C102.199 109.064 114.589 94.2889 129.871 94.2889C145.154 94.2889 157.543 109.064 157.543 127.289C157.543 145.514 145.154 160.289 129.871 160.289Z" fill="#FFA94D"/>
</svg>
